# xmcd
#
# Track frame offsets: 
#        150
#        12231
#        22647
#        32693
#        44497
#        54702
#        65687
#        77869
#        88383
#        99186
#
# Disc length: 1463 seconds
#
# Revision: 0
# Processed by: cddbd v1.5.2PL0 Copyright (c) Steve Scherf et al.
# Submitted via: ExactAudioCopy v1.0b1
#
DISCID=7805b50a
DTITLE=The Hagers - The Hagers
DYEAR=1900
DGENRE=Country
TTITLE0=Loneliness Without You
TTITLE1=I'm Her Fun
TTITLE2=Tracks (Running Through The City)
TTITLE3=Your Tender Loving Care
TTITLE4=I Don't Wanna Make It
TTITLE5=Gotta Get To Oklahoma ('Cause California's Gettin' To Me)
TTITLE6=With Lonely
TTITLE7=I'm Not Going Back To Jackson
TTITLE8=Give It Time
TTITLE9=Goin' Home To Your Mother
EXTD=
EXTT0=
EXTT1=
EXTT2=
EXTT3=
EXTT4=
EXTT5=
EXTT6=
EXTT7=
EXTT8=
EXTT9=
PLAYORDER=
